# xmcd
#
# Track frame offsets:
#	150
#	14878
#	32198
#	45652
#	59374
#	74250
#	90869
#	108102
#	121708
#	136812
#	151626
#	166991
#	181532
#	195833
#	210689
#	223561
#	239249
#	255511
#	271580
#	289026
#	303997
#
# Disc length: 4229 seconds
#
# Revision: 1
# Processed by: cddbd v1.5.2PL0 Copyright (c) Steve Scherf et al.
# Submitted via: dBpowerAMP V4.0
#
DISCID=14108315
DTITLE=Various Artist - Hott Country Volume 262 Can
DYEAR=2017
DGENRE=Country
TTITLE0=Keith Urban - Female
TTITLE1=David Lee Murphy And Kenny Chesney - Everything's Gonna Be Alright
TTITLE2=Kane Brown - Heaven
TTITLE3=Runaway Angel - Witness
TTITLE4=Morgan Wallen ft. Florida Georgia Line - Up Down
TTITLE5=Cam - Diane
TTITLE6=Kip Moore - Last Shot
TTITLE7=Jerrod Niemann - I Got This
TTITLE8=Andrew Hyatt - Do It With You
TTITLE9=Michael Tyler - Hey Mama
TTITLE10=Lindsay Ell - Criminal
TTITLE11=Jeremy Michael - Talk
TTITLE12=Past The Perimeter - Jack And Diane Kinda Town
TTITLE13=Brian Milson - I'd Have To Kiss Ya
TTITLE14=Lewis Brice - Best Ex Ever
TTITLE15=Danielle Marie - As Long As I'm Awake
TTITLE16=Canaan Cox - Lie
TTITLE17=Johnson Crook - Minnedosa
TTITLE18=Dennie Hall - Painkiller
TTITLE19=Luke Bryan - Oh Holy Night
TTITLE20=Phil Vassar and Kellie Pickler - The Naughty List
EXTD=
EXTT0=
EXTT1=
EXTT2=
EXTT3=
EXTT4=
EXTT5=
EXTT6=
EXTT7=
EXTT8=
EXTT9=
EXTT10=
EXTT11=
EXTT12=
EXTT13=
EXTT14=
EXTT15=
EXTT16=
EXTT17=
EXTT18=
EXTT19=
EXTT20=
PLAYORDER=
